<?xml version="1.0" encoding="UTF-8" ?>
<!DOCTYPE svg PUBLIC "-//W3C//DTD SVG 1.1//EN" "http://www.w3.org/Graphics/SVG/1.1/DTD/svg11.dtd">
<svg width="400pt" height="171pt" viewBox="0 0 400 171" version="1.1" xmlns="http://www.w3.org/2000/svg">
<g id="#000000ff">
<path fill="#000000" opacity="1.00" d=" M 195.36 0.00 L 214.04 0.00 C 214.03 56.33 214.04 112.66 214.03 168.99 C 207.80 169.00 201.58 169.01 195.35 168.99 C 195.36 112.66 195.35 56.33 195.36 0.00 Z" />
<path fill="#000000" opacity="1.00" d=" M 239.02 0.00 L 257.69 0.00 C 257.70 56.33 257.69 112.66 257.70 168.99 C 251.47 169.01 245.24 169.00 239.02 169.00 C 239.01 112.66 239.02 56.33 239.02 0.00 Z" />
<path fill="#000000" opacity="1.00" d=" M 8.19 101.16 C 16.48 89.49 30.65 82.33 44.96 82.48 C 55.27 82.31 65.40 85.97 73.62 92.09 C 69.75 96.76 65.85 101.40 61.95 106.03 C 51.09 98.22 34.14 98.73 25.04 109.05 C 19.41 115.15 17.71 124.04 19.18 132.04 C 20.72 140.79 27.24 148.54 35.71 151.32 C 44.46 154.13 54.58 152.86 61.94 147.19 C 65.69 151.90 69.44 156.61 73.16 161.36 C 65.92 166.78 57.25 170.22 48.22 171.00 L 41.48 171.00 C 29.96 169.89 18.77 164.64 11.14 155.84 C 4.62 148.57 0.74 139.11 0.00 129.38 L 0.00 124.56 C 0.52 116.20 3.29 107.97 8.19 101.16 Z" />
<path fill="#000000" opacity="1.00" d=" M 94.41 105.42 C 104.39 86.84 129.51 76.61 148.98 86.09 C 162.02 92.58 169.94 106.15 173.56 119.81 C 153.22 127.43 132.82 134.87 112.46 142.44 C 121.16 154.38 140.70 156.58 151.09 145.64 C 154.90 150.11 158.72 154.59 162.51 159.09 C 155.35 166.15 145.69 170.66 135.58 171.00 L 131.63 171.00 C 115.22 170.28 99.69 159.99 92.93 144.98 C 87.08 132.57 87.68 117.37 94.41 105.42 M 115.06 107.98 C 110.37 112.30 108.10 118.56 107.56 124.80 C 121.57 119.75 135.46 114.37 149.51 109.44 C 146.62 105.26 142.10 102.02 137.09 101.02 C 129.21 99.89 120.74 102.28 115.06 107.98 Z" />
</g>
<g id="#ff0000ff">
<path fill="#ff0000" opacity="1.00" d=" M 275.31 99.76 C 275.31 93.74 275.27 87.73 275.34 81.71 C 291.72 81.81 309.11 84.21 322.60 94.27 C 327.44 97.75 331.47 102.17 335.27 106.72 C 331.55 111.84 327.95 117.04 324.50 122.33 C 319.98 116.26 314.71 110.55 308.03 106.84 C 298.13 101.23 286.51 99.81 275.31 99.76 Z" />
<path fill="#ff0000" opacity="1.00" d=" M 353.02 94.08 C 366.49 84.22 383.72 81.79 400.00 81.73 L 400.00 99.75 C 389.40 99.86 378.45 101.04 368.92 105.99 C 361.89 109.52 356.15 115.16 351.52 121.44 C 342.23 133.65 334.76 147.78 322.00 156.86 C 308.56 166.53 291.47 168.91 275.30 168.96 C 275.31 162.96 275.30 156.96 275.31 150.97 C 285.04 150.84 295.00 149.84 304.00 145.88 C 311.28 142.71 317.46 137.42 322.28 131.18 C 332.28 118.64 339.70 103.61 353.02 94.08 Z" />
<path fill="#ff0000" opacity="1.00" d=" M 340.04 143.98 C 343.74 138.86 347.35 133.68 350.79 128.39 C 355.24 134.16 360.19 139.75 366.58 143.43 C 376.61 149.40 388.53 150.86 400.00 150.97 L 400.00 168.97 C 386.13 168.90 371.81 167.22 359.40 160.63 C 351.76 156.65 345.41 150.64 340.04 143.98 Z" />
</g>
</svg>
